<svg id="Layer_1" data-name="Layer 1" xmlns="http://www.w3.org/2000/svg" width="55" height="55" viewBox="0 0 55 55"><defs><style>.cls-1{fill-rule:evenodd;}</style></defs><path id="Path_3" data-name="Path 3" class="cls-1" d="M27.5,6.09c6.94,0,7.81,0,10.42.28a13.49,13.49,0,0,1,4.91.87,10.16,10.16,0,0,1,4.93,4.92,13.53,13.53,0,0,1,.86,4.92c0,2.6.29,3.47.29,10.42s0,7.81-.29,10.41a13.53,13.53,0,0,1-.86,4.92,10.18,10.18,0,0,1-4.93,4.93,13.48,13.48,0,0,1-4.91.86c-2.6,0-3.48.29-10.42.29s-7.81,0-10.42-.29a13.53,13.53,0,0,1-4.92-.86,10.23,10.23,0,0,1-4.92-4.92,13.32,13.32,0,0,1-.86-4.92c0-2.6-.29-3.47-.29-10.42s0-7.81.29-10.42a13.36,13.36,0,0,1,.86-4.92,10.41,10.41,0,0,1,2-2.89,4.91,4.91,0,0,1,2.89-2,13.54,13.54,0,0,1,4.92-.87c2.6-.28,3.47-.28,10.42-.28m0-4.63c-6.94,0-8.1,0-10.71.28A18,18,0,0,0,10.43,2.9,11.24,11.24,0,0,0,5.8,5.8a11.24,11.24,0,0,0-2.9,4.63,13.26,13.26,0,0,0-1.16,6.36c-.28,2.61-.28,3.77-.28,10.71s0,8.1.28,10.7A18,18,0,0,0,2.9,44.57,11.24,11.24,0,0,0,5.8,49.2a11.22,11.22,0,0,0,4.63,2.89,17.74,17.74,0,0,0,6.36,1.17c2.6.28,3.76.28,10.71.28s8.1,0,10.7-.28a18,18,0,0,0,6.37-1.16,12.13,12.13,0,0,0,7.52-7.52,17.85,17.85,0,0,0,1.17-6.38c0-2.89.28-3.76.28-10.7s0-8.1-.28-10.71a17.74,17.74,0,0,0-1.17-6.36A11.22,11.22,0,0,0,49.2,5.8a11.24,11.24,0,0,0-4.63-2.9A18,18,0,0,0,38.2,1.74c-2.6-.28-3.76-.28-10.7-.28m0,12.73A13.09,13.09,0,0,0,14.19,27.07v.43A13.31,13.31,0,1,0,27.5,14.19h0m0,22a8.52,8.52,0,0,1-8.68-8.37V27.5a8.52,8.52,0,0,1,8.37-8.68,1.6,1.6,0,0,1,.31,0,8.52,8.52,0,0,1,8.68,8.36v.32a8.52,8.52,0,0,1-8.37,8.68H27.5M41.39,10.43a3.18,3.18,0,1,0,3.18,3.18h0a3.2,3.2,0,0,0-3.18-3.18"/></svg>