<svg xmlns="http://www.w3.org/2000/svg" width="53" height="53" viewBox="0 0 53 53"><defs><style>.cls-1{fill:#75a1bd;fill-rule:evenodd;}</style></defs><g id="Layer_3" data-name="Layer 3"><path id="Path_3" data-name="Path 3" class="cls-1" d="M26.5,5.09c6.94,0,7.81,0,10.42.28a13.49,13.49,0,0,1,4.91.87,10.16,10.16,0,0,1,4.93,4.92,13.53,13.53,0,0,1,.86,4.92c0,2.6.29,3.47.29,10.42s0,7.81-.29,10.41a13.53,13.53,0,0,1-.86,4.92,10.18,10.18,0,0,1-4.93,4.93,13.48,13.48,0,0,1-4.91.86c-2.6,0-3.48.29-10.42.29s-7.81,0-10.42-.29a13.53,13.53,0,0,1-4.92-.86,10.23,10.23,0,0,1-4.92-4.92,13.32,13.32,0,0,1-.86-4.92c0-2.6-.29-3.47-.29-10.42s0-7.81.29-10.42a13.36,13.36,0,0,1,.86-4.92,10.41,10.41,0,0,1,2-2.89,4.91,4.91,0,0,1,2.89-2,13.54,13.54,0,0,1,4.92-.87c2.6-.28,3.47-.28,10.42-.28m0-4.63c-6.94,0-8.1,0-10.71.28A18,18,0,0,0,9.43,1.9,11.24,11.24,0,0,0,4.8,4.8,11.24,11.24,0,0,0,1.9,9.43,13.26,13.26,0,0,0,.74,15.79C.46,18.4.46,19.56.46,26.5s0,8.1.28,10.7A18,18,0,0,0,1.9,43.57,11.24,11.24,0,0,0,4.8,48.2a11.22,11.22,0,0,0,4.63,2.89,17.74,17.74,0,0,0,6.36,1.17c2.6.28,3.76.28,10.71.28s8.1,0,10.7-.28a18,18,0,0,0,6.37-1.16,12.13,12.13,0,0,0,7.52-7.52,17.85,17.85,0,0,0,1.17-6.38c0-2.89.28-3.76.28-10.7s0-8.1-.28-10.71a17.74,17.74,0,0,0-1.17-6.36A11.22,11.22,0,0,0,48.2,4.8a11.24,11.24,0,0,0-4.63-2.9A18,18,0,0,0,37.2.74C34.6.46,33.44.46,26.5.46m0,12.73A13.09,13.09,0,0,0,13.19,26.07v.43A13.31,13.31,0,1,0,26.5,13.19h0m0,22a8.52,8.52,0,0,1-8.68-8.37V26.5a8.52,8.52,0,0,1,8.37-8.68,1.6,1.6,0,0,1,.31,0,8.52,8.52,0,0,1,8.68,8.36v.32a8.52,8.52,0,0,1-8.37,8.68H26.5M40.39,9.43a3.18,3.18,0,1,0,3.18,3.18h0a3.2,3.2,0,0,0-3.18-3.18"/></g></svg>