<svg xmlns="http://www.w3.org/2000/svg" width="13" height="13" viewBox="0 0 13 13"><defs><style>.cls-1{fill:#fff;}</style></defs><g id="Layer_3" data-name="Layer 3"><path id="Rectangle_459" data-name="Rectangle 459" class="cls-1" d="M2,.39,12.61,11a1.1,1.1,0,0,1,0,1.57h0a1.1,1.1,0,0,1-1.57,0L.39,2A1.1,1.1,0,0,1,.39.39h0A1.1,1.1,0,0,1,2,.39Z"/><path id="Rectangle_466" data-name="Rectangle 466" class="cls-1" d="M.39,11,11,.39a1.1,1.1,0,0,1,1.57,0h0a1.1,1.1,0,0,1,0,1.57L2,12.61a1.1,1.1,0,0,1-1.57,0h0A1.1,1.1,0,0,1,.39,11Z"/></g></svg>